<mxfile>
    <diagram id="64Jwu-385EjZUypTDHN7" name="ページ1">
        <mxGraphModel dx="1101" dy="1752" grid="1" gridSize="10" guides="1" tooltips="1" connect="1" arrows="1" fold="1" page="1" pageScale="1" pageWidth="827" pageHeight="1169" background="none" math="0" shadow="0">
            <root>
                <mxCell id="0"/>
                <mxCell id="1" parent="0"/>
                <mxCell id="23" value="" style="rounded=0;whiteSpace=wrap;html=1;strokeWidth=2;fillColor=#FFFFFF;strokeColor=none;" vertex="1" parent="1">
                    <mxGeometry x="10" y="-20" width="610" height="320" as="geometry"/>
                </mxCell>
                <mxCell id="15" value="" style="rounded=1;whiteSpace=wrap;html=1;fillColor=none;fontSize=12;arcSize=8;strokeColor=#000000;strokeWidth=2;" parent="1" vertex="1">
                    <mxGeometry x="30" y="20" width="570" height="130" as="geometry"/>
                </mxCell>
                <mxCell id="2" value="&lt;font style=&quot;font-size: 18px&quot;&gt;児童発達支援&lt;/font&gt;&lt;br&gt;&lt;br&gt;身近な地域における通所支援機能&lt;br&gt;&lt;br&gt;通所利用の障害児やその家族に対する支援" style="rounded=1;whiteSpace=wrap;html=1;" parent="1" vertex="1">
                    <mxGeometry x="40" y="40" width="240" height="90" as="geometry"/>
                </mxCell>
                <mxCell id="3" value="" style="shape=cross;whiteSpace=wrap;html=1;" parent="1" vertex="1">
                    <mxGeometry x="290" y="65" width="40" height="40" as="geometry"/>
                </mxCell>
                <mxCell id="6" value="保育所等訪問支援&lt;br style=&quot;font-size: 13px;&quot;&gt;などの実施" style="rounded=1;whiteSpace=wrap;html=1;fontSize=13;strokeColor=#001DBC;strokeWidth=2;fillColor=#0050ef;fontColor=#ffffff;" parent="1" vertex="1">
                    <mxGeometry x="343" y="56.5" width="120" height="65" as="geometry"/>
                </mxCell>
                <mxCell id="7" value="障害児相談支援&lt;br style=&quot;font-size: 13px;&quot;&gt;などの実施" style="rounded=1;whiteSpace=wrap;html=1;fontSize=13;strokeColor=#001DBC;strokeWidth=2;fillColor=#0050ef;fontColor=#ffffff;" parent="1" vertex="1">
                    <mxGeometry x="473" y="56.5" width="120" height="65" as="geometry"/>
                </mxCell>
                <mxCell id="9" value="ワンストップ対応" style="ellipse;whiteSpace=wrap;html=1;fontSize=22;fillColor=#1ba1e2;strokeColor=#006EAF;fontColor=#ffffff;" parent="1" vertex="1">
                    <mxGeometry x="353" y="117.5" width="230" height="50" as="geometry"/>
                </mxCell>
                <mxCell id="13" style="edgeStyle=orthogonalEdgeStyle;rounded=0;orthogonalLoop=1;jettySize=auto;html=1;exitX=0.5;exitY=0;exitDx=0;exitDy=0;entryX=0.5;entryY=1;entryDx=0;entryDy=0;fontSize=12;strokeColor=#000000;" parent="1" source="10" target="9" edge="1">
                    <mxGeometry relative="1" as="geometry"/>
                </mxCell>
                <mxCell id="10" value="利用者の利便性を考慮" style="rounded=1;whiteSpace=wrap;html=1;fontSize=18;" parent="1" vertex="1">
                    <mxGeometry x="366" y="190" width="210" height="30" as="geometry"/>
                </mxCell>
                <mxCell id="5" value="地域支援" style="rounded=1;whiteSpace=wrap;html=1;fontSize=14;strokeColor=#005700;strokeWidth=2;fillColor=#008a00;fontColor=#ffffff;" parent="1" vertex="1">
                    <mxGeometry x="430.5" y="40" width="75" height="30" as="geometry"/>
                </mxCell>
                <mxCell id="14" value="&lt;div style=&quot;text-align: left ; font-family: &amp;quot;helvetica&amp;quot;&quot;&gt;◆地域支援（相談支援等）は&lt;span&gt;３障害対応を基本&lt;/span&gt;&lt;/div&gt;&lt;div style=&quot;text-align: left ; font-family: &amp;quot;helvetica&amp;quot;&quot;&gt;&lt;br&gt;&lt;/div&gt;&lt;div style=&quot;text-align: left ; font-family: &amp;quot;helvetica&amp;quot;&quot;&gt;◆対応困難な場合は、適切な機関等を紹介、&lt;/div&gt;&lt;div style=&quot;text-align: left ; font-family: &amp;quot;helvetica&amp;quot;&quot;&gt;　あっせん&lt;/div&gt;" style="text;html=1;strokeColor=none;fillColor=none;align=center;verticalAlign=middle;whiteSpace=wrap;rounded=0;fontSize=12;fontColor=#000000;" parent="1" vertex="1">
                    <mxGeometry x="353" y="230" width="257" height="60" as="geometry"/>
                </mxCell>
                <mxCell id="16" value="児童発達支援センター" style="text;html=1;strokeColor=#001DBC;align=center;verticalAlign=middle;whiteSpace=wrap;rounded=0;fontSize=17;fillColor=#0050ef;fontColor=#ffffff;" parent="1" vertex="1">
                    <mxGeometry x="225" y="1" width="180" height="30" as="geometry"/>
                </mxCell>
                <mxCell id="22" value="＊機能を横付け" style="text;html=1;strokeColor=none;fillColor=none;align=center;verticalAlign=middle;whiteSpace=wrap;rounded=0;fontSize=12;fontColor=#FF0000;" parent="1" vertex="1">
                    <mxGeometry x="473" y="20" width="124.5" height="20" as="geometry"/>
                </mxCell>
            </root>
        </mxGraphModel>
    </diagram>
</mxfile>